<svg width="10" height="6" viewBox="0 0 10 6" fill="none"
    xmlns="http://www.w3.org/2000/svg">
    <path d="M3.75757 3.17361C3.75757 2.31592 4.16169 1.55191 4.79099 1.05955C4.3308 0.69951 3.75 0.484616 3.11881 0.484616C1.62451 0.484616 0.413208 1.6885 0.413208 3.17361C0.413208 4.65872 1.62451 5.86261 3.11881 5.86261C3.75 5.86261 4.3308 5.64772 4.79099 5.28768C4.16169 4.79532 3.75757 4.03131 3.75757 3.17361Z" />
    <path d="M9.16641 3.17361C9.16641 4.65872 7.95511 5.86261 6.46081 5.86261C5.82961 5.86261 5.24882 5.64772 4.78845 5.28768C5.41793 4.79532 5.82204 4.03131 5.82204 3.17361C5.82204 2.31592 5.41793 1.55191 4.78845 1.05955C5.24882 0.69951 5.82961 0.484616 6.46081 0.484616C7.95511 0.484616 9.16641 1.6885 9.16641 3.17361Z" />
    <path d="M4.79157 1.46051C3.81961 2.29906 3.72501 3.99893 4.78529 4.91424C5.75725 4.07569 5.85185 2.37582 4.79157 1.46051Z" />
</svg>
