<svg width="11" height="4" viewBox="0 0 11 4" fill="none"
    xmlns="http://www.w3.org/2000/svg">
    <path d="M4.88187 3.25507H4.03729L4.56555 0.189209H5.41009L4.88187 3.25507Z" />
    <path d="M7.94348 0.264193C7.77689 0.20216 7.51267 0.133667 7.18596 0.133667C6.35191 0.133667 5.76458 0.551125 5.76098 1.14796C5.75405 1.58831 6.18149 1.83289 6.50118 1.97971C6.82794 2.12975 6.93901 2.22767 6.93901 2.36141C6.93568 2.5668 6.67497 2.66148 6.43181 2.66148C6.09462 2.66148 5.91394 2.61266 5.63937 2.49839L5.52816 2.44941L5.40997 3.13763C5.60806 3.22233 5.97301 3.2975 6.35191 3.3008C7.2381 3.3008 7.81504 2.8898 7.82188 2.25377C7.82525 1.90476 7.59954 1.63734 7.11294 1.41881C6.81754 1.27853 6.63664 1.18394 6.63664 1.04041C6.6401 0.90993 6.78965 0.776283 7.1231 0.776283C7.39767 0.769737 7.59941 0.831684 7.75223 0.893674L7.82862 0.92623L7.94348 0.264193V0.264193V0.264193Z" />
    <path fill-rule="evenodd" clip-rule="evenodd" d="M9.45529 0.189209H10.1086L10.7899 3.25503H10.0079C10.0079 3.25503 9.9314 2.90277 9.90716 2.79513H8.82279L8.64553 3.25503H7.75934L9.01385 0.443585C9.10077 0.24461 9.25383 0.189209 9.45529 0.189209ZM9.40329 1.31113C9.40329 1.31113 9.13565 1.9928 9.0661 2.16893H9.7681C9.73337 2.01565 9.57344 1.28178 9.57344 1.28178L9.51441 1.01761C9.48956 1.08563 9.45361 1.17915 9.42937 1.24223C9.41293 1.285 9.40187 1.31377 9.40329 1.31113Z" />
    <path fill-rule="evenodd" clip-rule="evenodd" d="M2.50475 2.27983L3.33187 0.189209H4.22494L2.89741 3.25182H2.00429L1.25167 0.588406C0.991908 0.445842 0.695435 0.331186 0.363953 0.251623L0.377854 0.189676H1.7367C1.92089 0.196135 2.07034 0.25158 2.11897 0.44739L2.414 1.85466C2.41412 1.85505 2.41424 1.85544 2.41436 1.85583L2.50475 2.27983Z" />
</svg>
