<svg width="649" height="89" viewBox="0 0 649 89" fill="none" xmlns="http://www.w3.org/2000/svg">
<g clip-path="url(#clip0)">
<path fill-rule="evenodd" clip-rule="evenodd" d="M2.33062 70.2757C6.45933 79.2152 16.3262 85.9965 27.1844 87.3574C43.8127 89.4414 57.4207 83.0996 63.3226 70.5166L65.4236 66.0373V33.325V0.612797H56.9427H48.4617L48.0581 31.3427L47.6544 62.0726L46.197 64.2955C40.7192 72.6504 25.8314 72.3517 19.4589 63.759L17.7692 61.4806L17.3655 38.7199L16.9619 15.9593H8.48097H0V40.5944V65.2296L2.33062 70.2757ZM102.187 44.111C102.152 70.1881 116.568 85.1066 143.991 87.3725L143.991 87.3711C156.618 88.4142 167.15 88.3734 168.246 87.277C168.868 86.6551 169.215 83.4718 169.215 78.3922V70.4767H156.736C143.174 70.4767 137.666 69.6597 132.061 66.8169C124.735 63.1013 120.924 56.6158 120.164 46.573L119.71 40.5724L121.124 35.3489L122.538 30.1253L125.786 26.4353C130.831 20.7046 139.699 17.1991 149.224 17.1739L151.445 17.1689V26.8888V36.6086L160.128 36.3796L168.811 36.1506V18.381V0.611376L153.869 0.668781L138.926 0.726148L133.353 2.09858C112.046 7.34606 102.217 20.5925 102.187 44.111ZM211.221 87.5144H212.924H229.476C229.92 86.959 233.762 76.5964 237.869 64.824C241.976 53.0516 245.581 42.9627 245.879 42.4041C246.178 41.8455 249.988 51.4774 254.348 63.8084C258.707 76.1394 263.363 88.0975 263.363 88.0975L271.918 88.2476H279.922H282.855C282.855 88.2476 248.356 0.987841 246.903 0.413433C246.318 0.182221 245.5 0.331414 245.087 0.744618C244.298 1.53398 212.09 84.0496 211.221 87.5144ZM317.026 86.3093L318.022 87.3055L318.021 87.3025C318.707 87.9878 321.416 88.2273 326.704 88.0698L334.391 87.8408L334.609 70.2315L334.827 52.6221L338.917 52.8657L343.007 53.1093L350.606 69.5766C354.786 78.6336 358.616 86.539 359.119 87.1442L360.032 88.2447L367.808 88.2346C372.085 88.2277 376.093 87.9002 376.714 87.5071L377.843 86.7919L376.582 83.6828C375.889 81.9728 372.2 73.9002 368.385 65.7437C364.571 57.5872 361.449 50.8067 361.449 50.6759C361.449 50.5451 362.994 49.5273 364.882 48.4141C374.56 42.708 378.814 31.1429 375.702 18.9974C373.439 10.1608 369.267 5.61875 360.238 2.15821L356.199 0.610416H336.814H317.429L317.199 8.88945L316.969 17.1685L332.546 17.1886C349.494 17.2096 353.363 17.735 356.201 20.4011C359.926 23.9011 359.362 31.0031 355.13 33.876L352.969 35.3428L334.997 35.6005L317.026 35.8577V61.0835V86.3093ZM492.48 72.4672C492.358 80.003 492.437 86.6362 492.657 87.2079L493.056 88.2472H503.985H514.915V84.6125V80.9779H507.241H499.568V78.9889V77L507.04 76.7674L514.511 76.5354V73.3046V70.0737L507.04 69.8417L499.568 69.6097V67.2169V64.824H507.241H514.915V61.5704V58.3168L503.809 58.5413L492.703 58.7657L492.48 72.4672ZM530.261 72.766C530.261 80.6883 530.504 87.4122 530.799 87.7086C531.096 88.005 535.821 88.2471 541.3 88.2471H551.261V85.0162V81.7854H543.992H536.723V70.0736V58.3618H533.492H530.261V72.766ZM565.982 72.4672C565.86 80.003 565.939 86.6362 566.158 87.2079C566.379 87.7836 567.83 88.2472 569.41 88.2472H572.262V73.2559V58.2644L569.233 58.5151L566.204 58.7657L565.982 72.4672ZM596.493 75.2576V88.2469H600.619H603.763V76.5351V64.8233H608.205H612.648V61.5925V58.3617H600.507H588.366V60.6205V62.9663L588.447 64.8233H592.47H596.493V75.2576ZM626.552 85.4851C626.566 87.0409 626.576 88.0573 626.56 88.2469L627.136 88.2476H638.065H648.994V84.6129V80.9783H640.917H632.84V78.959V76.9397H640.513H648.187V73.305V69.6704H640.513H632.84V67.2472V64.824H640.917H648.994V61.5704V58.7657H638.065H626.782L626.56 72.4672C626.479 77.4368 626.525 82.4723 626.552 85.4851Z" fill="#AFAFAF"/>
<path d="M414.54 87.3206L413.11 86.2253L413.328 68.8609L413.547 51.4965H422.432H431.316L431.545 61.1016L431.773 70.7068L437.603 70.2598C440.809 70.0137 445.506 69.0333 448.042 68.0808L452.652 66.3488L456.227 62.3732L459.801 58.3976L461.223 53.143L462.646 47.8883L462.199 41.3697L461.752 34.8511L459.593 30.4391C455.849 22.7867 448.659 18.6814 436.888 17.4754L431.773 16.9513L431.545 26.5507L431.316 36.1502H422.431H413.546L413.317 19.996C413.192 11.1112 413.302 2.97737 413.561 1.92091L414.033 0L429.54 0.424761C440.235 0.717677 446.55 1.26084 449.893 2.17487C470.828 7.89978 480.182 20.7616 480.182 43.8233C480.182 73.7499 465.303 86.4174 428.394 87.9127L415.969 88.416L414.539 87.3207L414.54 87.3206Z" fill="#AFAFAF"/>
</g>
<defs>
<clipPath id="clip0">
<rect width="648.994" height="88.416" fill="white"/>
</clipPath>
</defs>
</svg>
